<?xml version="1.0" standalone="no"?><!DOCTYPE svg PUBLIC "-//W3C//DTD SVG 1.1//EN" "http://www.w3.org/Graphics/SVG/1.1/DTD/svg11.dtd"><svg t="1594278559874" class="icon" viewBox="0 0 1024 1024" version="1.1" xmlns="http://www.w3.org/2000/svg" p-id="9198" xmlns:xlink="http://www.w3.org/1999/xlink" width="290" height="290"><defs><style type="text/css"></style></defs><path d="M1024 861.090909H0V162.909091h1024v698.181818zM46.545455 814.545455h930.90909V209.454545H46.545455v605.09091z" fill="#1296db" p-id="9199" class="cursorsHover"></path><path d="M523.636364 744.727273h-46.545455v-69.818182c0-51.2-41.890909-93.090909-93.090909-93.090909h-139.636364c-51.2 0-93.090909 41.890909-93.090909 93.090909v69.818182h-46.545454v-69.818182c0-79.127273 60.509091-139.636364 139.636363-139.636364h139.636364c79.127273 0 139.636364 60.509091 139.636364 139.636364v69.818182z" fill="#1296db" p-id="9200" class="cursorsHover"></path><path d="M325.818182 558.545455c-76.8 0-139.636364-62.836364-139.636364-139.636364s62.836364-139.636364 139.636364-139.636364 139.636364 62.836364 139.636363 139.636364-62.836364 139.636364-139.636363 139.636364z m0-232.727273c-51.2 0-93.090909 41.890909-93.090909 93.090909s41.890909 93.090909 93.090909 93.090909 93.090909-41.890909 93.090909-93.090909-41.890909-93.090909-93.090909-93.090909zM546.909091 358.4h302.545454v46.545455h-302.545454zM546.909091 488.727273h116.363636v46.545454h-116.363636zM823.854545 733.090909h-41.890909l-81.454545-134.981818 39.563636-25.6 62.836364 104.727273 62.836364-104.727273 39.563636 25.6z" fill="#1296db" p-id="9201"></path></svg>