<?xml version="1.0" standalone="no"?><!DOCTYPE svg PUBLIC "-//W3C//DTD SVG 1.1//EN" "http://www.w3.org/Graphics/SVG/1.1/DTD/svg11.dtd"><svg t="1594278586304" class="icon" viewBox="0 0 1024 1024" version="1.1" xmlns="http://www.w3.org/2000/svg" p-id="9496" xmlns:xlink="http://www.w3.org/1999/xlink" width="290" height="290"><defs><style type="text/css"></style></defs><path d="M512 576.224c-35.822 0-63.968 28.658-63.968 63.968 0 23.54 12.794 44.522 32.24 55.268v104.908c0 17.91 14.329 31.728 32.24 31.728s32.24-13.817 32.24-31.728V695.972c18.934-11.258 32.24-31.728 32.24-55.268-1.024-35.822-29.17-64.48-64.992-64.48z" p-id="9497"></path><path d="M801.647 384.32h-33.263v-95.185c0.512-3.07 1.023-6.14 0.512-9.723C753.543 149.43 651.194 51.174 511.488 51.174c-153.011 0-256.384 117.702-256.384 262.013v70.621h63.968v-70.62c0-109.002 75.227-197.534 192.416-197.534 105.42 0 180.646 72.668 192.928 169.9v99.278H221.84c-70.62 0-128.96 56.803-128.96 127.936v383.808c0 70.62 58.34 127.424 128.96 127.424h579.294c70.621 0 128.96-57.827 128.96-127.424V512.768c0.512-71.133-57.315-128.448-128.448-128.448z m63.968 511.744c0 35.822-28.146 63.968-63.968 63.968H222.353c-35.31 0-63.968-28.146-63.968-63.456V511.744c0-34.798 29.17-63.968 63.968-63.968h579.294c35.822 0 63.968 28.146 63.968 63.968v384.32z" p-id="9498" class="cursorsHover"></path></svg>